<svg xmlns="http://www.w3.org/2000/svg" xmlns:xlink="http://www.w3.org/1999/xlink" width="500" zoomAndPan="magnify" viewBox="0 0 375 374.999991" height="500" preserveAspectRatio="xMidYMid meet" version="1.0"><defs><g/></defs><g fill="#ffffff" fill-opacity="1"><g transform="translate(33.916532, 192.985579)"><g><path d="M 35.59375 -23.15625 C 38.550781 -22.507812 40.828125 -21.234375 42.421875 -19.328125 C 44.023438 -17.429688 44.828125 -14.988281 44.828125 -12 C 44.828125 -8.144531 43.40625 -5.179688 40.5625 -3.109375 C 37.71875 -1.035156 33.519531 0 27.96875 0 L 7.3125 0 L 7.3125 -44.890625 L 26.6875 -44.890625 C 31.6875 -44.890625 35.566406 -43.882812 38.328125 -41.875 C 41.085938 -39.875 42.46875 -37.035156 42.46875 -33.359375 C 42.46875 -30.878906 41.859375 -28.769531 40.640625 -27.03125 C 39.421875 -25.300781 37.738281 -24.007812 35.59375 -23.15625 Z M 12.0625 -40.984375 L 12.0625 -24.6875 L 26.359375 -24.6875 C 29.992188 -24.6875 32.796875 -25.378906 34.765625 -26.765625 C 36.734375 -28.160156 37.71875 -30.1875 37.71875 -32.84375 C 37.71875 -35.488281 36.734375 -37.503906 34.765625 -38.890625 C 32.796875 -40.285156 29.992188 -40.984375 26.359375 -40.984375 Z M 27.90625 -3.90625 C 31.925781 -3.90625 34.960938 -4.585938 37.015625 -5.953125 C 39.066406 -7.328125 40.09375 -9.46875 40.09375 -12.375 C 40.09375 -17.976562 36.03125 -20.78125 27.90625 -20.78125 L 12.0625 -20.78125 L 12.0625 -3.90625 Z M 27.90625 -3.90625 "/></g></g></g><g fill="#ffffff" fill-opacity="1"><g transform="translate(80.030614, 192.985579)"><g><path d="M 35.71875 -15.453125 L 7.5 -15.453125 C 7.757812 -11.953125 9.109375 -9.117188 11.546875 -6.953125 C 13.984375 -4.796875 17.0625 -3.71875 20.78125 -3.71875 C 22.875 -3.71875 24.796875 -4.09375 26.546875 -4.84375 C 28.304688 -5.59375 29.828125 -6.691406 31.109375 -8.140625 L 33.671875 -5.203125 C 32.171875 -3.398438 30.296875 -2.023438 28.046875 -1.078125 C 25.804688 -0.140625 23.34375 0.328125 20.65625 0.328125 C 17.1875 0.328125 14.113281 -0.410156 11.4375 -1.890625 C 8.769531 -3.367188 6.6875 -5.410156 5.1875 -8.015625 C 3.695312 -10.628906 2.953125 -13.582031 2.953125 -16.875 C 2.953125 -20.164062 3.664062 -23.113281 5.09375 -25.71875 C 6.53125 -28.332031 8.5 -30.363281 11 -31.8125 C 13.5 -33.269531 16.3125 -34 19.4375 -34 C 22.550781 -34 25.347656 -33.269531 27.828125 -31.8125 C 30.316406 -30.363281 32.265625 -28.34375 33.671875 -25.75 C 35.085938 -23.164062 35.796875 -20.207031 35.796875 -16.875 Z M 19.4375 -30.078125 C 16.1875 -30.078125 13.457031 -29.039062 11.25 -26.96875 C 9.050781 -24.894531 7.800781 -22.191406 7.5 -18.859375 L 31.421875 -18.859375 C 31.128906 -22.191406 29.878906 -24.894531 27.671875 -26.96875 C 25.472656 -29.039062 22.726562 -30.078125 19.4375 -30.078125 Z M 19.4375 -30.078125 "/></g></g></g><g fill="#ffffff" fill-opacity="1"><g transform="translate(116.524176, 192.985579)"><g><path d="M 6.34375 -47.59375 L 10.90625 -47.59375 L 10.90625 0 L 6.34375 0 Z M 6.34375 -47.59375 "/></g></g></g><g fill="#ffffff" fill-opacity="1"><g transform="translate(131.531917, 192.985579)"><g><path d="M 6.34375 -47.59375 L 10.90625 -47.59375 L 10.90625 0 L 6.34375 0 Z M 6.34375 -47.59375 "/></g></g></g><g fill="#ffffff" fill-opacity="1"><g transform="translate(146.539652, 192.985579)"><g><path d="M 18.15625 -34 C 22.5625 -34 25.9375 -32.894531 28.28125 -30.6875 C 30.632812 -28.488281 31.8125 -25.226562 31.8125 -20.90625 L 31.8125 0 L 27.453125 0 L 27.453125 -5.265625 C 26.421875 -3.503906 24.910156 -2.128906 22.921875 -1.140625 C 20.941406 -0.160156 18.582031 0.328125 15.84375 0.328125 C 12.082031 0.328125 9.085938 -0.566406 6.859375 -2.359375 C 4.640625 -4.160156 3.53125 -6.539062 3.53125 -9.5 C 3.53125 -12.363281 4.566406 -14.671875 6.640625 -16.421875 C 8.710938 -18.171875 12.015625 -19.046875 16.546875 -19.046875 L 27.265625 -19.046875 L 27.265625 -21.109375 C 27.265625 -24.015625 26.453125 -26.222656 24.828125 -27.734375 C 23.203125 -29.253906 20.828125 -30.015625 17.703125 -30.015625 C 15.566406 -30.015625 13.515625 -29.660156 11.546875 -28.953125 C 9.578125 -28.253906 7.890625 -27.285156 6.484375 -26.046875 L 4.421875 -29.4375 C 6.128906 -30.894531 8.179688 -32.019531 10.578125 -32.8125 C 12.972656 -33.601562 15.5 -34 18.15625 -34 Z M 16.546875 -3.265625 C 19.109375 -3.265625 21.304688 -3.851562 23.140625 -5.03125 C 24.984375 -6.207031 26.359375 -7.910156 27.265625 -10.140625 L 27.265625 -15.65625 L 16.671875 -15.65625 C 10.898438 -15.65625 8.015625 -13.644531 8.015625 -9.625 C 8.015625 -7.65625 8.757812 -6.101562 10.25 -4.96875 C 11.75 -3.832031 13.847656 -3.265625 16.546875 -3.265625 Z M 16.546875 -3.265625 "/></g></g></g><g fill="#ffffff" fill-opacity="1"><g transform="translate(182.135296, 192.985579)"><g/></g></g><g fill="#ffffff" fill-opacity="1"><g transform="translate(196.694067, 192.985579)"><g><path d="M 7.3125 -44.890625 L 12.0625 -44.890625 L 12.0625 0 L 7.3125 0 Z M 7.3125 -44.890625 "/></g></g></g><g fill="#ffffff" fill-opacity="1"><g transform="translate(213.818318, 192.985579)"><g><path d="M 24.109375 -2.046875 C 23.253906 -1.273438 22.195312 -0.6875 20.9375 -0.28125 C 19.675781 0.125 18.363281 0.328125 17 0.328125 C 13.832031 0.328125 11.394531 -0.523438 9.6875 -2.234375 C 7.976562 -3.953125 7.125 -6.375 7.125 -9.5 L 7.125 -29.890625 L 1.09375 -29.890625 L 1.09375 -33.734375 L 7.125 -33.734375 L 7.125 -41.109375 L 11.671875 -41.109375 L 11.671875 -33.734375 L 21.9375 -33.734375 L 21.9375 -29.890625 L 11.671875 -29.890625 L 11.671875 -9.75 C 11.671875 -7.738281 12.171875 -6.207031 13.171875 -5.15625 C 14.179688 -4.113281 15.628906 -3.59375 17.515625 -3.59375 C 18.453125 -3.59375 19.359375 -3.738281 20.234375 -4.03125 C 21.109375 -4.332031 21.867188 -4.765625 22.515625 -5.328125 Z M 24.109375 -2.046875 "/></g></g></g><g fill="#ffffff" fill-opacity="1"><g transform="translate(237.612792, 192.985579)"><g><path d="M 18.15625 -34 C 22.5625 -34 25.9375 -32.894531 28.28125 -30.6875 C 30.632812 -28.488281 31.8125 -25.226562 31.8125 -20.90625 L 31.8125 0 L 27.453125 0 L 27.453125 -5.265625 C 26.421875 -3.503906 24.910156 -2.128906 22.921875 -1.140625 C 20.941406 -0.160156 18.582031 0.328125 15.84375 0.328125 C 12.082031 0.328125 9.085938 -0.566406 6.859375 -2.359375 C 4.640625 -4.160156 3.53125 -6.539062 3.53125 -9.5 C 3.53125 -12.363281 4.566406 -14.671875 6.640625 -16.421875 C 8.710938 -18.171875 12.015625 -19.046875 16.546875 -19.046875 L 27.265625 -19.046875 L 27.265625 -21.109375 C 27.265625 -24.015625 26.453125 -26.222656 24.828125 -27.734375 C 23.203125 -29.253906 20.828125 -30.015625 17.703125 -30.015625 C 15.566406 -30.015625 13.515625 -29.660156 11.546875 -28.953125 C 9.578125 -28.253906 7.890625 -27.285156 6.484375 -26.046875 L 4.421875 -29.4375 C 6.128906 -30.894531 8.179688 -32.019531 10.578125 -32.8125 C 12.972656 -33.601562 15.5 -34 18.15625 -34 Z M 16.546875 -3.265625 C 19.109375 -3.265625 21.304688 -3.851562 23.140625 -5.03125 C 24.984375 -6.207031 26.359375 -7.910156 27.265625 -10.140625 L 27.265625 -15.65625 L 16.671875 -15.65625 C 10.898438 -15.65625 8.015625 -13.644531 8.015625 -9.625 C 8.015625 -7.65625 8.757812 -6.101562 10.25 -4.96875 C 11.75 -3.832031 13.847656 -3.265625 16.546875 -3.265625 Z M 16.546875 -3.265625 "/></g></g></g><g fill="#ffffff" fill-opacity="1"><g transform="translate(273.208447, 192.985579)"><g><path d="M 6.34375 -47.59375 L 10.90625 -47.59375 L 10.90625 0 L 6.34375 0 Z M 6.34375 -47.59375 "/></g></g></g><g fill="#ffffff" fill-opacity="1"><g transform="translate(288.216182, 192.985579)"><g><path d="M 6.34375 -33.734375 L 10.90625 -33.734375 L 10.90625 0 L 6.34375 0 Z M 8.671875 -41.109375 C 7.722656 -41.109375 6.925781 -41.425781 6.28125 -42.0625 C 5.644531 -42.707031 5.328125 -43.484375 5.328125 -44.390625 C 5.328125 -45.242188 5.644531 -45.988281 6.28125 -46.625 C 6.925781 -47.269531 7.722656 -47.59375 8.671875 -47.59375 C 9.609375 -47.59375 10.394531 -47.28125 11.03125 -46.65625 C 11.675781 -46.039062 12 -45.304688 12 -44.453125 C 12 -43.503906 11.675781 -42.707031 11.03125 -42.0625 C 10.394531 -41.425781 9.609375 -41.109375 8.671875 -41.109375 Z M 8.671875 -41.109375 "/></g></g></g><g fill="#ffffff" fill-opacity="1"><g transform="translate(303.223917, 192.985579)"><g><path d="M 18.15625 -34 C 22.5625 -34 25.9375 -32.894531 28.28125 -30.6875 C 30.632812 -28.488281 31.8125 -25.226562 31.8125 -20.90625 L 31.8125 0 L 27.453125 0 L 27.453125 -5.265625 C 26.421875 -3.503906 24.910156 -2.128906 22.921875 -1.140625 C 20.941406 -0.160156 18.582031 0.328125 15.84375 0.328125 C 12.082031 0.328125 9.085938 -0.566406 6.859375 -2.359375 C 4.640625 -4.160156 3.53125 -6.539062 3.53125 -9.5 C 3.53125 -12.363281 4.566406 -14.671875 6.640625 -16.421875 C 8.710938 -18.171875 12.015625 -19.046875 16.546875 -19.046875 L 27.265625 -19.046875 L 27.265625 -21.109375 C 27.265625 -24.015625 26.453125 -26.222656 24.828125 -27.734375 C 23.203125 -29.253906 20.828125 -30.015625 17.703125 -30.015625 C 15.566406 -30.015625 13.515625 -29.660156 11.546875 -28.953125 C 9.578125 -28.253906 7.890625 -27.285156 6.484375 -26.046875 L 4.421875 -29.4375 C 6.128906 -30.894531 8.179688 -32.019531 10.578125 -32.8125 C 12.972656 -33.601562 15.5 -34 18.15625 -34 Z M 16.546875 -3.265625 C 19.109375 -3.265625 21.304688 -3.851562 23.140625 -5.03125 C 24.984375 -6.207031 26.359375 -7.910156 27.265625 -10.140625 L 27.265625 -15.65625 L 16.671875 -15.65625 C 10.898438 -15.65625 8.015625 -13.644531 8.015625 -9.625 C 8.015625 -7.65625 8.757812 -6.101562 10.25 -4.96875 C 11.75 -3.832031 13.847656 -3.265625 16.546875 -3.265625 Z M 16.546875 -3.265625 "/></g></g></g><path stroke-linecap="butt" transform="matrix(1.494515, 0, 0, 1.494515, 6.235182, 227.754127)" fill="none" stroke-linejoin="miter" d="M -0.00053966 1.000909 L 28.130965 1.000909 " stroke="#ffffff" stroke-width="2" stroke-opacity="1" stroke-miterlimit="4"/><path stroke-linecap="butt" transform="matrix(1.494515, 0, 0, 1.494515, 326.721194, 227.754127)" fill="none" stroke-linejoin="miter" d="M 0.000978247 1.000909 L 28.132483 1.000909 " stroke="#ffffff" stroke-width="2" stroke-opacity="1" stroke-miterlimit="4"/><g fill="#ffffff" fill-opacity="1"><g transform="translate(95.836485, 237.334936)"><g><path d="M 7.359375 -14.3125 C 8.554688 -14.3125 9.515625 -13.941406 10.234375 -13.203125 C 10.960938 -12.472656 11.328125 -11.507812 11.328125 -10.3125 C 11.328125 -9.125 10.957031 -8.171875 10.21875 -7.453125 C 9.476562 -6.734375 8.503906 -6.375 7.296875 -6.375 L 3.328125 -6.375 C 3.265625 -6.375 3.234375 -6.335938 3.234375 -6.265625 L 3.234375 -0.265625 C 3.234375 -0.0859375 3.144531 0 2.96875 0 L 2.046875 0 C 1.867188 0 1.78125 -0.0859375 1.78125 -0.265625 L 1.78125 -14.046875 C 1.78125 -14.222656 1.867188 -14.3125 2.046875 -14.3125 Z M 7.1875 -7.578125 C 7.988281 -7.578125 8.640625 -7.820312 9.140625 -8.3125 C 9.648438 -8.8125 9.90625 -9.472656 9.90625 -10.296875 C 9.90625 -11.117188 9.648438 -11.78125 9.140625 -12.28125 C 8.640625 -12.789062 7.988281 -13.046875 7.1875 -13.046875 L 3.328125 -13.046875 C 3.265625 -13.046875 3.234375 -13.015625 3.234375 -12.953125 L 3.234375 -7.671875 C 3.234375 -7.609375 3.265625 -7.578125 3.328125 -7.578125 Z M 7.1875 -7.578125 "/></g></g></g><g fill="#ffffff" fill-opacity="1"><g transform="translate(112.005704, 237.334936)"><g><path d="M 2.1875 0 C 2.007812 0 1.921875 -0.0859375 1.921875 -0.265625 L 1.921875 -14.03125 C 1.921875 -14.207031 2.007812 -14.296875 2.1875 -14.296875 L 3.109375 -14.296875 C 3.285156 -14.296875 3.375 -14.207031 3.375 -14.03125 L 3.375 -0.265625 C 3.375 -0.0859375 3.285156 0 3.109375 0 Z M 2.1875 0 "/></g></g></g><g fill="#ffffff" fill-opacity="1"><g transform="translate(121.377019, 237.334936)"><g><path d="M 1.1875 0 C 1.007812 0 0.921875 -0.0859375 0.921875 -0.265625 L 0.921875 -1.140625 C 0.921875 -1.253906 0.953125 -1.363281 1.015625 -1.46875 L 8.453125 -12.90625 C 8.492188 -12.988281 8.472656 -13.03125 8.390625 -13.03125 L 1.1875 -13.03125 C 1.007812 -13.03125 0.921875 -13.117188 0.921875 -13.296875 L 0.921875 -14.03125 C 0.921875 -14.207031 1.007812 -14.296875 1.1875 -14.296875 L 9.859375 -14.296875 C 10.035156 -14.296875 10.125 -14.207031 10.125 -14.03125 L 10.125 -13.15625 C 10.125 -13.039062 10.09375 -12.929688 10.03125 -12.828125 L 2.609375 -1.390625 C 2.566406 -1.304688 2.585938 -1.265625 2.671875 -1.265625 L 9.859375 -1.265625 C 10.035156 -1.265625 10.125 -1.175781 10.125 -1 L 10.125 -0.265625 C 10.125 -0.0859375 10.035156 0 9.859375 0 Z M 1.1875 0 "/></g></g></g><g fill="#ffffff" fill-opacity="1"><g transform="translate(136.66843, 237.334936)"><g><path d="M 1.1875 0 C 1.007812 0 0.921875 -0.0859375 0.921875 -0.265625 L 0.921875 -1.140625 C 0.921875 -1.253906 0.953125 -1.363281 1.015625 -1.46875 L 8.453125 -12.90625 C 8.492188 -12.988281 8.472656 -13.03125 8.390625 -13.03125 L 1.1875 -13.03125 C 1.007812 -13.03125 0.921875 -13.117188 0.921875 -13.296875 L 0.921875 -14.03125 C 0.921875 -14.207031 1.007812 -14.296875 1.1875 -14.296875 L 9.859375 -14.296875 C 10.035156 -14.296875 10.125 -14.207031 10.125 -14.03125 L 10.125 -13.15625 C 10.125 -13.039062 10.09375 -12.929688 10.03125 -12.828125 L 2.609375 -1.390625 C 2.566406 -1.304688 2.585938 -1.265625 2.671875 -1.265625 L 9.859375 -1.265625 C 10.035156 -1.265625 10.125 -1.175781 10.125 -1 L 10.125 -0.265625 C 10.125 -0.0859375 10.035156 0 9.859375 0 Z M 1.1875 0 "/></g></g></g><g fill="#ffffff" fill-opacity="1"><g transform="translate(151.959841, 237.334936)"><g><path d="M 10.4375 0 C 10.289062 0 10.195312 -0.0703125 10.15625 -0.21875 L 9.328125 -2.71875 C 9.304688 -2.769531 9.273438 -2.796875 9.234375 -2.796875 L 3.140625 -2.796875 C 3.097656 -2.796875 3.066406 -2.769531 3.046875 -2.71875 L 2.25 -0.21875 C 2.207031 -0.0703125 2.109375 0 1.953125 0 L 0.984375 0 C 0.890625 0 0.820312 -0.0234375 0.78125 -0.078125 C 0.738281 -0.128906 0.726562 -0.207031 0.75 -0.3125 L 5.25 -14.078125 C 5.289062 -14.222656 5.382812 -14.296875 5.53125 -14.296875 L 6.84375 -14.296875 C 6.988281 -14.296875 7.082031 -14.222656 7.125 -14.078125 L 11.640625 -0.3125 C 11.648438 -0.28125 11.65625 -0.242188 11.65625 -0.203125 C 11.65625 -0.148438 11.628906 -0.101562 11.578125 -0.0625 C 11.535156 -0.0195312 11.484375 0 11.421875 0 Z M 3.484375 -4.109375 C 3.472656 -4.023438 3.503906 -3.984375 3.578125 -3.984375 L 8.828125 -3.984375 C 8.898438 -3.984375 8.925781 -4.023438 8.90625 -4.109375 L 6.25 -12.453125 C 6.238281 -12.515625 6.21875 -12.546875 6.1875 -12.546875 C 6.15625 -12.546875 6.132812 -12.515625 6.125 -12.453125 Z M 3.484375 -4.109375 "/></g></g></g><g fill="#ffffff" fill-opacity="1"><g transform="translate(168.43527, 237.334936)"><g/></g></g><g fill="#ffffff" fill-opacity="1"><g transform="translate(176.602162, 237.334936)"><g><path d="M 12.125 -0.328125 C 12.164062 -0.273438 12.1875 -0.21875 12.1875 -0.15625 C 12.1875 -0.0507812 12.113281 0 11.96875 0 L 10.953125 0 C 10.804688 0 10.695312 -0.046875 10.625 -0.140625 L 9.453125 -1.484375 C 9.410156 -1.546875 9.363281 -1.554688 9.3125 -1.515625 C 8.675781 -0.929688 8.019531 -0.503906 7.34375 -0.234375 C 6.675781 0.0234375 5.953125 0.15625 5.171875 0.15625 C 3.972656 0.15625 3.003906 -0.125 2.265625 -0.6875 C 1.523438 -1.25 1.15625 -2.066406 1.15625 -3.140625 C 1.15625 -4.078125 1.421875 -4.882812 1.953125 -5.5625 C 2.484375 -6.238281 3.226562 -6.890625 4.1875 -7.515625 C 4.238281 -7.566406 4.242188 -7.613281 4.203125 -7.65625 C 3.410156 -8.625 2.882812 -9.34375 2.625 -9.8125 C 2.375 -10.289062 2.25 -10.769531 2.25 -11.25 C 2.25 -12.21875 2.5625 -12.992188 3.1875 -13.578125 C 3.8125 -14.160156 4.640625 -14.453125 5.671875 -14.453125 C 6.722656 -14.453125 7.578125 -14.164062 8.234375 -13.59375 C 8.898438 -13.03125 9.234375 -12.273438 9.234375 -11.328125 C 9.234375 -10.503906 8.976562 -9.789062 8.46875 -9.1875 C 7.957031 -8.59375 7.238281 -7.988281 6.3125 -7.375 C 6.269531 -7.332031 6.265625 -7.285156 6.296875 -7.234375 L 8.671875 -4.4375 L 9.359375 -3.609375 C 9.410156 -3.554688 9.457031 -3.554688 9.5 -3.609375 C 9.9375 -4.128906 10.367188 -4.695312 10.796875 -5.3125 C 10.898438 -5.445312 11.023438 -5.472656 11.171875 -5.390625 L 11.828125 -5 C 11.921875 -4.945312 11.96875 -4.878906 11.96875 -4.796875 C 11.96875 -4.753906 11.945312 -4.703125 11.90625 -4.640625 C 11.207031 -3.660156 10.679688 -2.960938 10.328125 -2.546875 L 10.3125 -2.515625 C 10.3125 -2.460938 10.351562 -2.394531 10.4375 -2.3125 L 11.3125 -1.265625 Z M 5.71875 -13.109375 C 5.101562 -13.109375 4.613281 -12.941406 4.25 -12.609375 C 3.882812 -12.273438 3.703125 -11.820312 3.703125 -11.25 C 3.703125 -10.925781 3.800781 -10.578125 4 -10.203125 C 4.207031 -9.835938 4.648438 -9.238281 5.328125 -8.40625 C 5.367188 -8.351562 5.414062 -8.347656 5.46875 -8.390625 C 6.21875 -8.910156 6.789062 -9.390625 7.1875 -9.828125 C 7.582031 -10.273438 7.78125 -10.773438 7.78125 -11.328125 C 7.78125 -11.859375 7.585938 -12.285156 7.203125 -12.609375 C 6.828125 -12.941406 6.332031 -13.109375 5.71875 -13.109375 Z M 5.203125 -1.078125 C 5.804688 -1.078125 6.363281 -1.191406 6.875 -1.421875 C 7.394531 -1.660156 7.921875 -2.023438 8.453125 -2.515625 C 8.503906 -2.554688 8.507812 -2.601562 8.46875 -2.65625 L 7.578125 -3.703125 C 7.304688 -4.023438 7.082031 -4.28125 6.90625 -4.46875 C 6.019531 -5.488281 5.441406 -6.164062 5.171875 -6.5 C 5.128906 -6.550781 5.082031 -6.554688 5.03125 -6.515625 C 4.25 -5.953125 3.648438 -5.414062 3.234375 -4.90625 C 2.816406 -4.394531 2.609375 -3.816406 2.609375 -3.171875 C 2.609375 -2.515625 2.84375 -2 3.3125 -1.625 C 3.78125 -1.257812 4.410156 -1.078125 5.203125 -1.078125 Z M 5.203125 -1.078125 "/></g></g></g><g fill="#ffffff" fill-opacity="1"><g transform="translate(194.20037, 237.334936)"><g/></g></g><g fill="#ffffff" fill-opacity="1"><g transform="translate(202.367263, 237.334936)"><g><path d="M 7.359375 -14.3125 C 8.554688 -14.3125 9.515625 -13.941406 10.234375 -13.203125 C 10.960938 -12.472656 11.328125 -11.507812 11.328125 -10.3125 C 11.328125 -9.125 10.957031 -8.171875 10.21875 -7.453125 C 9.476562 -6.734375 8.503906 -6.375 7.296875 -6.375 L 3.328125 -6.375 C 3.265625 -6.375 3.234375 -6.335938 3.234375 -6.265625 L 3.234375 -0.265625 C 3.234375 -0.0859375 3.144531 0 2.96875 0 L 2.046875 0 C 1.867188 0 1.78125 -0.0859375 1.78125 -0.265625 L 1.78125 -14.046875 C 1.78125 -14.222656 1.867188 -14.3125 2.046875 -14.3125 Z M 7.1875 -7.578125 C 7.988281 -7.578125 8.640625 -7.820312 9.140625 -8.3125 C 9.648438 -8.8125 9.90625 -9.472656 9.90625 -10.296875 C 9.90625 -11.117188 9.648438 -11.78125 9.140625 -12.28125 C 8.640625 -12.789062 7.988281 -13.046875 7.1875 -13.046875 L 3.328125 -13.046875 C 3.265625 -13.046875 3.234375 -13.015625 3.234375 -12.953125 L 3.234375 -7.671875 C 3.234375 -7.609375 3.265625 -7.578125 3.328125 -7.578125 Z M 7.1875 -7.578125 "/></g></g></g><g fill="#ffffff" fill-opacity="1"><g transform="translate(218.536482, 237.334936)"><g><path d="M 10.4375 0 C 10.289062 0 10.195312 -0.0703125 10.15625 -0.21875 L 9.328125 -2.71875 C 9.304688 -2.769531 9.273438 -2.796875 9.234375 -2.796875 L 3.140625 -2.796875 C 3.097656 -2.796875 3.066406 -2.769531 3.046875 -2.71875 L 2.25 -0.21875 C 2.207031 -0.0703125 2.109375 0 1.953125 0 L 0.984375 0 C 0.890625 0 0.820312 -0.0234375 0.78125 -0.078125 C 0.738281 -0.128906 0.726562 -0.207031 0.75 -0.3125 L 5.25 -14.078125 C 5.289062 -14.222656 5.382812 -14.296875 5.53125 -14.296875 L 6.84375 -14.296875 C 6.988281 -14.296875 7.082031 -14.222656 7.125 -14.078125 L 11.640625 -0.3125 C 11.648438 -0.28125 11.65625 -0.242188 11.65625 -0.203125 C 11.65625 -0.148438 11.628906 -0.101562 11.578125 -0.0625 C 11.535156 -0.0195312 11.484375 0 11.421875 0 Z M 3.484375 -4.109375 C 3.472656 -4.023438 3.503906 -3.984375 3.578125 -3.984375 L 8.828125 -3.984375 C 8.898438 -3.984375 8.925781 -4.023438 8.90625 -4.109375 L 6.25 -12.453125 C 6.238281 -12.515625 6.21875 -12.546875 6.1875 -12.546875 C 6.15625 -12.546875 6.132812 -12.515625 6.125 -12.453125 Z M 3.484375 -4.109375 "/></g></g></g><g fill="#ffffff" fill-opacity="1"><g transform="translate(235.01191, 237.334936)"><g><path d="M 6.078125 0.15625 C 5.085938 0.15625 4.222656 0 3.484375 -0.3125 C 2.742188 -0.625 2.171875 -1.066406 1.765625 -1.640625 C 1.359375 -2.222656 1.15625 -2.894531 1.15625 -3.65625 L 1.15625 -4.234375 C 1.15625 -4.410156 1.242188 -4.5 1.421875 -4.5 L 2.3125 -4.5 C 2.488281 -4.5 2.578125 -4.410156 2.578125 -4.234375 L 2.578125 -3.734375 C 2.578125 -2.960938 2.898438 -2.332031 3.546875 -1.84375 C 4.203125 -1.351562 5.082031 -1.109375 6.1875 -1.109375 C 7.238281 -1.109375 8.035156 -1.328125 8.578125 -1.765625 C 9.117188 -2.210938 9.390625 -2.800781 9.390625 -3.53125 C 9.390625 -4.007812 9.265625 -4.414062 9.015625 -4.75 C 8.765625 -5.09375 8.378906 -5.414062 7.859375 -5.71875 C 7.347656 -6.019531 6.609375 -6.367188 5.640625 -6.765625 C 4.617188 -7.171875 3.820312 -7.523438 3.25 -7.828125 C 2.6875 -8.140625 2.234375 -8.535156 1.890625 -9.015625 C 1.546875 -9.492188 1.375 -10.101562 1.375 -10.84375 C 1.375 -11.988281 1.769531 -12.875 2.5625 -13.5 C 3.351562 -14.132812 4.453125 -14.453125 5.859375 -14.453125 C 7.359375 -14.453125 8.539062 -14.097656 9.40625 -13.390625 C 10.28125 -12.679688 10.71875 -11.742188 10.71875 -10.578125 L 10.71875 -10.1875 C 10.71875 -10.007812 10.628906 -9.921875 10.453125 -9.921875 L 9.5625 -9.921875 C 9.382812 -9.921875 9.296875 -10.007812 9.296875 -10.1875 L 9.296875 -10.5 C 9.296875 -11.289062 8.988281 -11.9375 8.375 -12.4375 C 7.757812 -12.9375 6.894531 -13.1875 5.78125 -13.1875 C 4.8125 -13.1875 4.070312 -12.988281 3.5625 -12.59375 C 3.050781 -12.207031 2.796875 -11.640625 2.796875 -10.890625 C 2.796875 -10.398438 2.921875 -9.992188 3.171875 -9.671875 C 3.421875 -9.347656 3.78125 -9.066406 4.25 -8.828125 C 4.726562 -8.585938 5.445312 -8.28125 6.40625 -7.90625 C 7.40625 -7.5 8.207031 -7.117188 8.8125 -6.765625 C 9.425781 -6.410156 9.914062 -5.976562 10.28125 -5.46875 C 10.65625 -4.957031 10.84375 -4.332031 10.84375 -3.59375 C 10.84375 -2.46875 10.421875 -1.5625 9.578125 -0.875 C 8.742188 -0.1875 7.578125 0.15625 6.078125 0.15625 Z M 6.078125 0.15625 "/></g></g></g><g fill="#ffffff" fill-opacity="1"><g transform="translate(251.058643, 237.334936)"><g><path d="M 10.46875 -14.296875 C 10.644531 -14.296875 10.734375 -14.207031 10.734375 -14.03125 L 10.734375 -13.28125 C 10.734375 -13.101562 10.644531 -13.015625 10.46875 -13.015625 L 6.5625 -13.015625 C 6.488281 -13.015625 6.453125 -12.976562 6.453125 -12.90625 L 6.453125 -0.265625 C 6.453125 -0.0859375 6.363281 0 6.1875 0 L 5.265625 0 C 5.085938 0 5 -0.0859375 5 -0.265625 L 5 -12.90625 C 5 -12.976562 4.96875 -13.015625 4.90625 -13.015625 L 1.140625 -13.015625 C 0.960938 -13.015625 0.875 -13.101562 0.875 -13.28125 L 0.875 -14.03125 C 0.875 -14.207031 0.960938 -14.296875 1.140625 -14.296875 Z M 10.46875 -14.296875 "/></g></g></g><g fill="#ffffff" fill-opacity="1"><g transform="translate(266.758333, 237.334936)"><g><path d="M 10.4375 0 C 10.289062 0 10.195312 -0.0703125 10.15625 -0.21875 L 9.328125 -2.71875 C 9.304688 -2.769531 9.273438 -2.796875 9.234375 -2.796875 L 3.140625 -2.796875 C 3.097656 -2.796875 3.066406 -2.769531 3.046875 -2.71875 L 2.25 -0.21875 C 2.207031 -0.0703125 2.109375 0 1.953125 0 L 0.984375 0 C 0.890625 0 0.820312 -0.0234375 0.78125 -0.078125 C 0.738281 -0.128906 0.726562 -0.207031 0.75 -0.3125 L 5.25 -14.078125 C 5.289062 -14.222656 5.382812 -14.296875 5.53125 -14.296875 L 6.84375 -14.296875 C 6.988281 -14.296875 7.082031 -14.222656 7.125 -14.078125 L 11.640625 -0.3125 C 11.648438 -0.28125 11.65625 -0.242188 11.65625 -0.203125 C 11.65625 -0.148438 11.628906 -0.101562 11.578125 -0.0625 C 11.535156 -0.0195312 11.484375 0 11.421875 0 Z M 3.484375 -4.109375 C 3.472656 -4.023438 3.503906 -3.984375 3.578125 -3.984375 L 8.828125 -3.984375 C 8.898438 -3.984375 8.925781 -4.023438 8.90625 -4.109375 L 6.25 -12.453125 C 6.238281 -12.515625 6.21875 -12.546875 6.1875 -12.546875 C 6.15625 -12.546875 6.132812 -12.515625 6.125 -12.453125 Z M 3.484375 -4.109375 "/></g></g></g></svg>